<svg height="512pt" viewBox="0 -21 512 512" width="512pt" xmlns="http://www.w3.org/2000/svg"><path d="m371.273438 389.253906h-251.507813c-11.023437 0-19.960937-8.933594-19.960937-19.960937 0-11.023438 8.9375-19.960938 19.960937-19.960938h251.507813c11.007812 0 19.960937-8.953125 19.960937-19.960937v-205.597656c0-11.023438 8.9375-19.960938 19.960937-19.960938 11.027344 0 19.960938 8.9375 19.960938 19.960938v205.597656c0 33.019531-26.863281 59.882812-59.882812 59.882812zm120.765624-205.597656c-11.023437 0-19.960937 8.9375-19.960937 19.960938v205.597656c0 11.007812-8.953125 19.964844-19.960937 19.964844h-251.507813c-11.027344 0-19.960937 8.933593-19.960937 19.960937 0 11.023437 8.933593 19.960937 19.960937 19.960937h251.507813c33.019531 0 59.882812-26.867187 59.882812-59.886718v-205.597656c0-11.023438-8.9375-19.960938-19.960938-19.960938zm-200.269531 119.765625h-232.226562c-32.832031 0-59.542969-26.710937-59.542969-59.542969v-184.335937c0-32.832031 26.710938-59.542969 59.542969-59.542969h232.226562c32.832031 0 59.542969 26.710938 59.542969 59.542969v184.335937c0 32.832032-26.710938 59.542969-59.542969 59.542969zm-251.847656-243.878906v159.648437l54.519531-59.054687c3.722656-4.03125 8.945313-6.355469 14.433594-6.421875 5.503906-.046875 10.761719 2.136718 14.578125 6.082031l24.335937 25.144531 93.175782-109.066406c3.796875-4.4375 9.339844-6.992188 15.179687-6.992188h.078125c5.867188.023438 11.425782 2.625 15.199219 7.113282l39.96875 47.539062v-63.992187c0-10.816407-8.800781-19.621094-19.621094-19.621094h-232.226562c-10.816407 0-19.621094 8.804687-19.621094 19.621094zm19.621094 203.957031h232.226562c10.820313 0 19.621094-8.800781 19.621094-19.621094v-58.308594l-55.367187-65.855468-92.136719 107.847656c-3.652344 4.277344-8.9375 6.8125-14.558594 6.988281-5.625.171875-11.050781-2.03125-14.960937-6.070312l-24.914063-25.746094-55.375 59.976563c1.738281.507812 3.566406.789062 5.464844.789062zm59.226562-148.707031c11.023438 0 19.960938-8.9375 19.960938-19.960938 0-11.027343-8.9375-19.960937-19.960938-19.960937-11.027343 0-19.960937 8.933594-19.960937 19.960937 0 11.023438 8.933594 19.960938 19.960937 19.960938zm0 0"/></svg>