<svg xmlns="http://www.w3.org/2000/svg"><symbol id="back" viewBox="0 0 408 408"><title>back</title><path d="M408 178.5H96.9L239.7 35.7 204 0 0 204l204 204 35.7-35.7L96.9 229.5H408v-51z"/></symbol><symbol id="cancel" viewBox="0 0 21.9 21.9"><title>cancel</title><path d="M14.1 11.3c-.2-.2-.2-.5 0-.7l7.5-7.5c.2-.2.3-.5.3-.7s-.1-.5-.3-.7L20.2.3c-.2-.2-.5-.3-.7-.3-.3 0-.5.1-.7.3l-7.5 7.5c-.2.2-.5.2-.7 0L3.1.3C2.9.1 2.6 0 2.4 0s-.5.1-.7.3L.3 1.7c-.2.2-.3.5-.3.7s.1.5.3.7l7.5 7.5c.2.2.2.5 0 .7L.3 18.8c-.2.2-.3.5-.3.7s.1.5.3.7l1.4 1.4c.2.2.5.3.7.3s.5-.1.7-.3l7.5-7.5c.2-.2.5-.2.7 0l7.5 7.5c.2.2.5.3.7.3s.5-.1.7-.3l1.4-1.4c.2-.2.3-.5.3-.7s-.1-.5-.3-.7l-7.5-7.5z"/></symbol><symbol id="checkbox-active" viewBox="0 0 459 459"><title>checkbox-active</title><path d="M408 0H51C22.95 0 0 22.95 0 51v357c0 28.05 22.95 51 51 51h357c28.05 0 51-22.95 51-51V51c0-28.05-22.95-51-51-51zM178.5 357L51 229.5l35.7-35.7 91.8 91.8L372.3 91.8l35.7 35.7L178.5 357z"/></symbol><symbol id="checkbox" viewBox="0 0 459 459"><title>checkbox</title><path d="M408 51v357H51V51h357m0-51H51C22.95 0 0 22.95 0 51v357c0 28.05 22.95 51 51 51h357c28.05 0 51-22.95 51-51V51c0-28.05-22.95-51-51-51z"/></symbol><symbol id="clock" viewBox="0 0 510 510"><title>clock</title><g fill-opacity=".9"><path d="M255 0C114.75 0 0 114.75 0 255s114.75 255 255 255 255-114.75 255-255S395.25 0 255 0zm0 459c-112.2 0-204-91.8-204-204S142.8 51 255 51s204 91.8 204 204-91.8 204-204 204z"/><path d="M267.75 127.5H229.5v153l132.6 81.6 20.4-33.15-114.75-68.85z"/></g></symbol><symbol id="collection" viewBox="0 -21 512 512"><title>collection</title><path d="M371.273 389.254H119.766c-11.024 0-19.961-8.934-19.961-19.961 0-11.023 8.937-19.961 19.96-19.961h251.508c11.008 0 19.961-8.953 19.961-19.96v-205.6c0-11.023 8.938-19.96 19.961-19.96 11.028 0 19.961 8.937 19.961 19.96V329.37c0 33.02-26.863 59.883-59.883 59.883zM492.04 183.656c-11.023 0-19.96 8.938-19.96 19.961v205.598c0 11.008-8.954 19.965-19.962 19.965H200.61c-11.027 0-19.96 8.933-19.96 19.96 0 11.024 8.933 19.962 19.96 19.962h251.508c33.02 0 59.883-26.868 59.883-59.887V203.617c0-11.023-8.938-19.96-19.96-19.96zM291.77 303.422H59.544C26.711 303.422 0 276.71 0 243.879V59.543C0 26.711 26.71 0 59.543 0H291.77c32.832 0 59.543 26.71 59.543 59.543v184.336c0 32.832-26.711 59.543-59.543 59.543zM39.923 59.543v159.648l54.52-59.054a19.981 19.981 0 0114.433-6.422c5.504-.047 10.762 2.137 14.578 6.082l24.336 25.144 93.176-109.066a19.974 19.974 0 0115.18-6.992h.078a19.96 19.96 0 0115.199 7.113l39.969 47.54V59.542c0-10.816-8.801-19.621-19.621-19.621H59.543c-10.816 0-19.621 8.805-19.621 19.621zM59.543 263.5H291.77c10.82 0 19.62-8.8 19.62-19.621V185.57l-55.367-65.855-92.136 107.847a19.96 19.96 0 01-29.52.918l-24.914-25.746-55.375 59.977a19.43 19.43 0 005.465.789zm59.227-148.707c11.023 0 19.96-8.938 19.96-19.961 0-11.027-8.937-19.96-19.96-19.96-11.028 0-19.961 8.933-19.961 19.96 0 11.023 8.933 19.961 19.96 19.961zm0 0"/></symbol><symbol id="difficulty" viewBox="0 0 512 512"><title>Уровень сложности</title><path d="M492 512c-11.047 0-20-8.953-20-20V20c0-11.047 8.953-20 20-20s20 8.953 20 20v472c0 11.047-8.953 20-20 20zm-59-20V101c0-11.047-8.953-20-20-20s-20 8.953-20 20v391c0 11.047 8.953 20 20 20s20-8.953 20-20zm-79 0V181c0-11.047-8.953-20-20-20s-20 8.953-20 20v311c0 11.047 8.953 20 20 20s20-8.953 20-20zm-79 0V261c0-11.047-8.953-20-20-20s-20 8.953-20 20v231c0 11.047 8.953 20 20 20s20-8.953 20-20zm-79 0V341c0-11.047-8.953-20-20-20s-20 8.953-20 20v151c0 11.047 8.953 20 20 20s20-8.953 20-20zm-79 0v-81c0-11.047-8.953-20-20-20s-20 8.953-20 20v81c0 11.047 8.953 20 20 20s20-8.953 20-20zm-77 0c0-11.047-8.953-20-20-20s-20 8.953-20 20 8.953 20 20 20 20-8.953 20-20zm0 0"/></symbol><symbol id="email" viewBox="0 0 550.795 550.795"><title>email</title><path d="M501.613 491.782c12.381 0 23.109-4.088 32.229-12.16L377.793 323.567a2878.213 2878.213 0 00-10.801 7.767c-11.678 8.604-21.156 15.318-28.434 20.129-7.277 4.822-16.959 9.737-29.045 14.755-12.094 5.024-23.361 7.528-33.813 7.528h-.612c-10.453 0-21.72-2.503-33.813-7.528-12.093-5.018-21.775-9.933-29.045-14.755-7.277-4.811-16.75-11.524-28.434-20.129a1351.934 1351.934 0 00-10.771-7.809L16.946 479.622c9.119 8.072 19.854 12.16 32.234 12.16h452.433zM31.047 225.299C19.37 217.514 9.015 208.598 0 198.555V435.98l137.541-137.541c-27.516-19.21-62.969-43.562-106.494-73.14zm489.012 0c-41.865 28.336-77.447 52.73-106.75 73.195l137.486 137.492V198.555c-8.815 9.841-19.059 18.751-30.736 26.744z"/><path d="M501.613 59.013H49.181c-15.784 0-27.919 5.33-36.42 15.979C4.253 85.646.006 98.97.006 114.949c0 12.907 5.636 26.892 16.903 41.959 11.267 15.061 23.256 26.891 35.961 35.496 6.965 4.921 27.969 19.523 63.012 43.801a20367.497 20367.497 0 0149.505 34.395 8855.122 8855.122 0 0131.022 21.701c.985.691 2.534 1.799 4.59 3.269 2.215 1.591 5.018 3.61 8.476 6.107 6.659 4.816 12.191 8.709 16.597 11.683 4.4 2.975 9.731 6.298 15.985 9.988 6.249 3.685 12.143 6.456 17.675 8.299 5.533 1.842 10.655 2.766 15.367 2.766h.612c4.711 0 9.834-.924 15.368-2.766 5.531-1.843 11.42-4.608 17.674-8.299 6.248-3.69 11.572-7.02 15.986-9.988 4.406-2.974 9.938-6.866 16.598-11.683 3.451-2.497 6.254-4.517 8.469-6.102a643.575 643.575 0 014.596-3.274c6.684-4.651 17.1-11.892 31.104-21.616 25.482-17.705 63.01-43.764 112.742-78.281 14.957-10.447 27.453-23.054 37.496-37.803 10.025-14.749 15.051-30.22 15.051-46.408 0-13.525-4.873-25.098-14.598-34.737-9.736-9.627-21.265-14.443-34.584-14.443z"/></symbol><symbol id="eye" viewBox="0 0 932.15 932.15"><title>eye</title><path d="M466.075 161.525c-205.6 0-382.8 121.2-464.2 296.1-2.5 5.3-2.5 11.5 0 16.9 81.4 174.899 258.601 296.1 464.2 296.1s382.8-121.2 464.2-296.1c2.5-5.3 2.5-11.5 0-16.9-81.4-174.9-258.6-296.1-464.2-296.1zm0 514.701c-116.1 0-210.1-94.101-210.1-210.101 0-116.1 94.1-210.1 210.1-210.1 116.1 0 210.1 94.1 210.1 210.1s-94.1 210.101-210.1 210.101z"/><circle cx="466.075" cy="466.025" r="134.5"/></symbol><symbol id="facebook" viewBox="0 0 96.124 96.123"><title>Facebook</title><path d="M72.089.02L59.624 0C45.62 0 36.57 9.285 36.57 23.656v10.907H24.037a1.96 1.96 0 00-1.96 1.961v15.803a1.96 1.96 0 001.96 1.96H36.57v39.876a1.96 1.96 0 001.96 1.96h16.352a1.96 1.96 0 001.96-1.96V54.287h14.654a1.96 1.96 0 001.96-1.96l.006-15.803a1.963 1.963 0 00-1.961-1.961H56.842v-9.246c0-4.444 1.059-6.7 6.848-6.7l8.397-.003a1.96 1.96 0 001.959-1.96V1.98A1.96 1.96 0 0072.089.02z"/></symbol><symbol id="favorite-fill" viewBox="0 -28 512 512"><title>favorite-fill</title><path d="M471.383 44.578C444.879 15.832 408.512 0 368.973 0c-29.555 0-56.621 9.344-80.45 27.77C276.5 37.07 265.605 48.45 256 61.73c-9.602-13.277-20.5-24.66-32.527-33.96C199.648 9.344 172.582 0 143.027 0c-39.539 0-75.91 15.832-102.414 44.578C14.426 72.988 0 111.801 0 153.871c0 43.3 16.137 82.938 50.781 124.742 30.992 37.395 75.535 75.356 127.117 119.313 17.614 15.012 37.579 32.027 58.309 50.152A30.023 30.023 0 00256 455.516a30.03 30.03 0 0019.785-7.43c20.73-18.129 40.707-35.152 58.328-50.172 51.575-43.95 96.117-81.906 127.11-119.305C495.867 236.81 512 197.172 512 153.867c0-42.066-14.426-80.879-40.617-109.289zm0 0"/></symbol><symbol id="favorite" viewBox="0 -28 512.001 512"><title>favorite</title><path d="M256 455.516a30.022 30.022 0 01-19.793-7.438c-20.684-18.086-40.625-35.082-58.219-50.074l-.09-.078c-51.582-43.957-96.125-81.918-127.117-119.313C16.137 236.81 0 197.172 0 153.871c0-42.07 14.426-80.883 40.617-109.293C67.121 15.832 103.488 0 143.031 0c29.555 0 56.621 9.344 80.446 27.77C235.5 37.07 246.398 48.453 256 61.73c9.605-13.277 20.5-24.66 32.527-33.96C312.352 9.344 339.418 0 368.973 0c39.539 0 75.91 15.832 102.414 44.578C497.578 72.988 512 111.801 512 153.871c0 43.3-16.133 82.938-50.777 124.738-30.993 37.399-75.532 75.356-127.106 119.309-17.625 15.016-37.597 32.039-58.328 50.168a30.046 30.046 0 01-19.789 7.43zM143.031 29.992c-31.066 0-59.605 12.399-80.367 34.914-21.07 22.856-32.676 54.45-32.676 88.965 0 36.418 13.535 68.988 43.883 105.606 29.332 35.394 72.961 72.574 123.477 115.625l.093.078c17.66 15.05 37.68 32.113 58.516 50.332 20.961-18.254 41.012-35.344 58.707-50.418 50.512-43.051 94.137-80.223 123.469-115.617 30.344-36.618 43.879-69.188 43.879-105.606 0-34.516-11.606-66.11-32.676-88.965-20.758-22.515-49.3-34.914-80.363-34.914-22.758 0-43.653 7.235-62.102 21.5-16.441 12.719-27.894 28.797-34.61 40.047-3.452 5.785-9.53 9.238-16.261 9.238s-12.809-3.453-16.262-9.238c-6.71-11.25-18.164-27.328-34.61-40.047-18.448-14.265-39.343-21.5-62.097-21.5zm0 0"/></symbol><symbol id="google" viewBox="0 0 512 512"><title>Google</title><path d="M113.597 193.064l-87.204-50.347C9.543 176.768.001 215.17 0 255.998c0 40.263 9.645 78.731 26.754 113.084l86.837-50.135c-8.565-19.286-13.418-40.558-13.417-62.949.001-22.39 4.857-43.655 13.423-62.934zM423.925 62.768C378.935 23.634 320.145-.043 255.823 0 167.822.059 89.276 44.985 43.127 113.824l87.275 50.39c28.381-38.714 74.04-64.041 125.601-64.04 37.587.001 72.042 13.437 98.954 35.701 6.588 5.449 16.218 4.95 22.263-1.095l47.531-47.531c6.854-6.854 6.487-18.121-.826-24.481zM510.247 226.38c-.997-8.475-8.122-14.89-16.653-14.89l-209.767-.011c-9.22 0-16.696 7.475-16.696 16.696v66.727c0 9.22 7.475 16.696 16.696 16.696h117.548c-10.827 28.179-29.633 52.403-53.575 70.013l49.928 86.478c50.256-34.056 88.467-85.547 105.297-146.331 9.15-33.049 10.797-65.007 7.222-95.378zM318.93 398.381c-19.255 8.578-40.511 13.444-62.927 13.446-51.619.001-97.252-25.327-125.613-64.026l-86.903 50.174C89.249 466.137 166.915 512 256.001 512c40.272 0 78.603-9.845 112.889-27.084l-49.96-86.535z"/></symbol><symbol id="guide" viewBox="0 0 512 512"><title>guide</title><path d="M422 0H0v452c0 33.086 26.914 60 60 60h392.008C485.086 512 512 485.086 512 452V241h-90zM60 482c-16.543 0-30-13.457-30-30V30h362v422a59.621 59.621 0 008.07 30zm422-211v181c0 16.543-13.453 30-30 30-16.543 0-30-13.457-30-30V271zm0 0"/><path d="M60 181h302V60H60zm30-91h242v61H90zM60 211h151v30H60zm181 0h121v30H241zM60 271h151v30H60zm181 0h121v30H241zM60 331h151v30H60zm0 60h151v30H60zm181 30h121v-90H241zm30-60h61v30h-61zm0 0"/></symbol><symbol id="instagram" viewBox="0 0 169.063 169.063"><title>Instagram</title><path d="M122.406 0H46.654C20.929 0 0 20.93 0 46.655v75.752c0 25.726 20.929 46.655 46.654 46.655h75.752c25.727 0 46.656-20.93 46.656-46.655V46.655C169.063 20.93 148.133 0 122.406 0zm31.657 122.407c0 17.455-14.201 31.655-31.656 31.655H46.654C29.2 154.063 15 139.862 15 122.407V46.655C15 29.201 29.2 15 46.654 15h75.752c17.455 0 31.656 14.201 31.656 31.655v75.752z"/><path d="M84.531 40.97c-24.021 0-43.563 19.542-43.563 43.563 0 24.02 19.542 43.561 43.563 43.561s43.563-19.541 43.563-43.561c0-24.021-19.542-43.563-43.563-43.563zm0 72.123c-15.749 0-28.563-12.812-28.563-28.561 0-15.75 12.813-28.563 28.563-28.563s28.563 12.813 28.563 28.563c0 15.749-12.814 28.561-28.563 28.561zm45.39-84.842c-2.89 0-5.729 1.17-7.77 3.22a11.053 11.053 0 00-3.23 7.78c0 2.891 1.18 5.73 3.23 7.78 2.04 2.04 4.88 3.22 7.77 3.22 2.9 0 5.73-1.18 7.78-3.22 2.05-2.05 3.22-4.89 3.22-7.78 0-2.9-1.17-5.74-3.22-7.78-2.04-2.05-4.88-3.22-7.78-3.22z"/></symbol><symbol id="link" viewBox="0 0 512 512"><title>link</title><path d="M512 259v173c0 44.113-35.887 80-80 80H80c-44.113 0-80-35.887-80-80V80C0 35.887 35.887 0 80 0h174c11.047 0 20 8.953 20 20s-8.953 20-20 20H80c-22.055 0-40 17.945-40 40v352c0 22.055 17.945 40 40 40h352c22.055 0 40-17.945 40-40V259c0-11.047 8.953-20 20-20s20 8.953 20 20zm-238.832-73.215a20.6 20.6 0 001.277 2.278c1.516 2.332 5.051 7.683 9.043 13.164l-65.629 65.628c-7.812 7.813-7.812 20.477 0 28.286C221.762 299.047 226.883 301 232 301s10.238-1.953 14.14-5.855l36.212-36.211c.859 1.57 1.691 3.152 2.464 4.687 3.586 7.566 5.403 15.195 5.403 22.684 0 20.46-11.692 43.062-33.824 65.386l-1.844 1.598a20.25 20.25 0 00-2.047 2.047l-1.59 1.836C228.57 379.309 205.973 391 185.524 391c-11.278 0-21.708-3.477-31.84-10.617-.364-.32-.739-.633-1.121-.93l-1.946-1.488a86.444 86.444 0 01-8.496-7.477C128.582 356.968 122 342.898 122 327.477c0-20.465 11.695-43.067 33.828-65.395l1.848-1.598a20.27 20.27 0 002.027-2.027l1.598-1.844c17.512-17.355 34.484-28.136 50.457-32.047 10.726-2.625 17.297-13.453 14.668-24.183-2.625-10.727-13.45-17.297-24.18-14.672-23.32 5.71-46.77 20.203-69.703 43.09-.344.344-.676.695-.992 1.062l-1.145 1.32-1.32 1.145a19.62 19.62 0 00-1.063.988C97.914 263.473 82 296.031 82 327.476c0 26.215 10.719 50.211 31.855 71.317a127.027 127.027 0 0012.426 10.918l.645.492a19.359 19.359 0 001.797 1.492C146.12 424.508 165.23 431 185.523 431c31.426 0 63.985-15.914 94.157-46.02.347-.347.68-.707 1-1.078l1.133-1.308 1.316-1.137c.367-.32.726-.652 1.07-.996 30.106-30.156 46.02-62.715 46.02-94.156 0-13.559-3.16-27.047-9.39-40.09a8.281 8.281 0 00-.157-.324c-1.41-2.82-4.844-9.477-9.067-16.215l64.536-64.535c7.808-7.809 7.808-20.473 0-28.286-7.813-7.808-20.477-7.808-28.286 0l-35.668 35.668a298.264 298.264 0 01-3.457-5.113c-3.289-7.246-4.953-14.547-4.953-21.719 0-20.46 11.696-43.058 33.825-65.386l1.847-1.598a19.779 19.779 0 002.043-2.043l1.586-1.84c22.348-22.133 44.95-33.828 65.395-33.828 11.277 0 21.71 3.477 31.843 10.621.364.32.735.63 1.122.926l1.94 1.488a87.85 87.85 0 018.5 7.477C465.419 75.028 472 89.098 472 104.523c0 20.461-11.695 43.063-33.828 65.391l-1.848 1.602a19.866 19.866 0 00-2.027 2.027l-1.594 1.84c-17.176 17.004-34.648 27.523-51.937 31.27-10.793 2.335-17.653 12.984-15.313 23.777 2.027 9.37 10.317 15.77 19.527 15.77 1.403 0 2.825-.145 4.25-.458 25.075-5.426 49.375-19.742 72.23-42.547.345-.34.673-.695.993-1.062l1.14-1.32 1.325-1.145c.363-.316.719-.648 1.059-.988C496.086 168.527 512 135.969 512 104.523c0-26.214-10.719-50.21-31.855-71.316a126.9 126.9 0 00-12.426-10.918l-.649-.5a20.42 20.42 0 00-1.793-1.484C447.883 7.492 428.77.996 408.477.996c-31.422 0-63.98 15.914-94.157 46.024-.343.343-.68.703-1 1.074l-1.132 1.312-1.32 1.14a19.66 19.66 0 00-1.067.993c-30.106 30.152-46.02 62.715-46.02 94.156 0 13.559 3.156 27.047 9.387 40.09zm0 0"/></symbol><symbol id="mail" viewBox="0 0 345.834 345.834"><title>mail</title><path d="M339.798 260.429c.13-.026.257-.061.385-.094.109-.028.219-.051.326-.084.125-.038.247-.085.369-.129.108-.039.217-.074.324-.119.115-.048.226-.104.338-.157.109-.052.22-.1.327-.158.107-.057.208-.122.312-.184.107-.064.215-.124.319-.194.111-.074.214-.156.321-.236.09-.067.182-.13.27-.202.162-.133.316-.275.466-.421.027-.026.056-.048.083-.075.028-.028.052-.059.079-.088.144-.148.284-.3.416-.46.077-.094.144-.192.216-.289.074-.1.152-.197.221-.301.074-.111.139-.226.207-.34.057-.096.118-.19.171-.289.062-.115.114-.234.169-.351.049-.104.101-.207.146-.314.048-.115.086-.232.128-.349.041-.114.085-.227.12-.343.036-.118.062-.238.092-.358.029-.118.063-.234.086-.353.028-.141.045-.283.065-.425.014-.1.033-.199.043-.3.025-.249.038-.498.038-.748V92.76c0-4.143-3.357-7.5-7.5-7.5h-236.25c-.066 0-.13.008-.196.01a7.58 7.58 0 00-.764.059 7.04 7.04 0 00-1.092.223 7.721 7.721 0 00-.695.235 7.042 7.042 0 00-.965.462 8.024 8.024 0 00-.617.393 6.928 6.928 0 00-.591.466 7.54 7.54 0 00-.266.242 7.986 7.986 0 00-.288.294c-.047.05-.097.094-.142.145-.027.03-.048.063-.074.093a7.4 7.4 0 00-.27.338c-.064.084-.13.168-.19.254-.078.112-.15.227-.222.343-.059.095-.12.189-.174.286-.063.112-.118.227-.175.342-.052.105-.106.21-.153.317-.049.113-.092.23-.135.345-.043.113-.087.225-.124.339-.037.115-.067.232-.099.349-.032.12-.066.239-.093.36-.025.113-.042.228-.062.342-.022.13-.044.26-.06.39-.013.108-.019.218-.027.328-.01.14-.019.28-.021.421-.001.041-.006.081-.006.122v46.252c0 4.143 3.357 7.5 7.5 7.5s7.5-3.357 7.5-7.5v-29.595l66.681 59.037a7.577 7.577 0 00-.995.827l-65.687 65.687v-49.288c0-4.143-3.357-7.5-7.5-7.5s-7.5 3.357-7.5 7.5v9.164h-38.75c-4.143 0-7.5 3.357-7.5 7.5s3.357 7.5 7.5 7.5h38.75v43.231c0 4.143 3.357 7.5 7.5 7.5h236.25c.247 0 .494-.013.74-.037.115-.011.226-.033.339-.049.13-.018.258-.033.386-.058zm-8.964-25.462l-65.688-65.687c-.042-.042-.087-.077-.13-.117l49.383-41.897a7.5 7.5 0 00-9.705-11.437l-84.381 71.59-98.444-87.158h208.965v134.706zm-144.956-55.079a7.473 7.473 0 001.308-1.765l28.051 24.835a7.486 7.486 0 004.972 1.885 7.489 7.489 0 004.853-1.781l28.587-24.254c.26.38.553.743.89 1.08l65.687 65.687H120.191l65.687-65.687z"/><path d="M7.5 170.676h126.667c4.143 0 7.5-3.357 7.5-7.5s-3.357-7.5-7.5-7.5H7.5c-4.143 0-7.5 3.357-7.5 7.5s3.357 7.5 7.5 7.5zm13.125-41.331H77.5c4.143 0 7.5-3.357 7.5-7.5s-3.357-7.5-7.5-7.5H20.625c-4.143 0-7.5 3.357-7.5 7.5s3.357 7.5 7.5 7.5zM62.5 226.51h-55c-4.143 0-7.5 3.357-7.5 7.5s3.357 7.5 7.5 7.5h55c4.143 0 7.5-3.357 7.5-7.5s-3.357-7.5-7.5-7.5z"/></symbol><symbol id="menu" viewBox="0 0 73.168 73.168"><title>menu</title><path d="M4.242 14.425h64.684c2.344 0 4.242-1.933 4.242-4.324 0-2.385-1.898-4.325-4.242-4.325H4.242C1.898 5.776 0 7.716 0 10.101c0 2.392 1.898 4.324 4.242 4.324zm64.684 17.834H4.242C1.898 32.259 0 34.2 0 36.584c0 2.393 1.898 4.325 4.242 4.325h64.684c2.344 0 4.242-1.933 4.242-4.325 0-2.384-1.898-4.325-4.242-4.325zm0 26.483H4.242C1.898 58.742 0 60.683 0 63.067c0 2.393 1.898 4.325 4.242 4.325h64.684c2.344 0 4.242-1.935 4.242-4.325 0-2.384-1.898-4.325-4.242-4.325z"/></symbol><symbol id="no-photo" viewBox="0 0 53 53"><title>no-photo</title><path d="M18.613 41.552l-7.907 4.313a7.106 7.106 0 00-1.269.903A26.377 26.377 0 0026.5 53c6.454 0 12.367-2.31 16.964-6.144a7.015 7.015 0 00-1.394-.934l-8.467-4.233a3.229 3.229 0 01-1.785-2.888v-3.322c.238-.271.51-.619.801-1.03a19.482 19.482 0 002.632-5.304c1.086-.335 1.886-1.338 1.886-2.53v-3.546c0-.78-.347-1.477-.886-1.965v-5.126s1.053-7.977-9.75-7.977-9.75 7.977-9.75 7.977v5.126a2.644 2.644 0 00-.886 1.965v3.546c0 .934.491 1.756 1.226 2.231.886 3.857 3.206 6.633 3.206 6.633v3.24a3.232 3.232 0 01-1.684 2.833z" fill="#e7eced"/><path d="M26.953.004C12.32-.246.254 11.414.004 26.047-.138 34.344 3.56 41.801 9.448 46.76a7.041 7.041 0 011.257-.894l7.907-4.313a3.23 3.23 0 001.683-2.835v-3.24s-2.321-2.776-3.206-6.633a2.66 2.66 0 01-1.226-2.231v-3.546c0-.78.347-1.477.886-1.965v-5.126S15.696 8 26.499 8s9.75 7.977 9.75 7.977v5.126c.54.488.886 1.185.886 1.965v3.546c0 1.192-.8 2.195-1.886 2.53a19.482 19.482 0 01-2.632 5.304c-.291.411-.563.759-.801 1.03V38.8c0 1.223.691 2.342 1.785 2.888l8.467 4.233a7.05 7.05 0 011.39.932c5.71-4.762 9.399-11.882 9.536-19.9C53.246 12.32 41.587.254 26.953.004z" fill="#556080"/></symbol><symbol id="odnoklassniki" viewBox="0 0 95.481 95.481"><title>Одноклассники</title><path d="M43.041 67.254c-7.402-.772-14.076-2.595-19.79-7.064-.709-.556-1.441-1.092-2.088-1.713-2.501-2.402-2.753-5.153-.774-7.988 1.693-2.426 4.535-3.075 7.489-1.682.572.27 1.117.607 1.639.969 10.649 7.317 25.278 7.519 35.967.329 1.059-.812 2.191-1.474 3.503-1.812 2.551-.655 4.93.282 6.299 2.514 1.564 2.549 1.544 5.037-.383 7.016-2.956 3.034-6.511 5.229-10.461 6.761-3.735 1.448-7.826 2.177-11.875 2.661.611.665.899.992 1.281 1.376 5.498 5.524 11.02 11.025 16.5 16.566 1.867 1.888 2.257 4.229 1.229 6.425-1.124 2.4-3.64 3.979-6.107 3.81-1.563-.108-2.782-.886-3.865-1.977-4.149-4.175-8.376-8.273-12.441-12.527-1.183-1.237-1.752-1.003-2.796.071-4.174 4.297-8.416 8.528-12.683 12.735-1.916 1.889-4.196 2.229-6.418 1.15-2.362-1.145-3.865-3.556-3.749-5.979.08-1.639.886-2.891 2.011-4.014 5.441-5.433 10.867-10.88 16.295-16.322.359-.362.694-.746 1.217-1.305z"/><path d="M47.55 48.329c-13.205-.045-24.033-10.992-23.956-24.218C23.67 10.739 34.505-.037 47.84 0c13.362.036 24.087 10.967 24.02 24.478-.068 13.199-10.971 23.897-24.31 23.851zm12.001-24.186c-.023-6.567-5.253-11.795-11.807-11.801-6.609-.007-11.886 5.316-11.835 11.943.049 6.542 5.324 11.733 11.896 11.709 6.552-.023 11.768-5.285 11.746-11.851z"/></symbol><symbol id="pinterest" viewBox="-62 0 512 512"><title>Pinterest</title><path d="M60.945 278.219c.64-1.598 7.051-26.23 7.5-27.899-10.007-15.058-21.125-64.37-12.597-104.398 9.199-58.73 71.437-87.602 130.199-87.602v-.11c73.57.048 128.64 40.981 128.7 111.477.046 55.18-33.196 128.118-89.958 128.118h-.043c-20.258 0-45.906-9.188-52.633-18.211-7.761-10.399-9.668-23.23-5.566-36.942 10.05-32.082 22.867-70.511 24.363-96.136 1.387-24.184-15.773-39.918-38.027-39.918-16.746 0-38.496 9.726-49.336 37.058-8.953 22.707-8.762 46.48.586 72.672 3.644 10.238-16.156 76.984-22.5 98.719-15.762 53.992-37.34 122.305-32.727 160.348L53.36 512l22.368-29.313c30.953-40.519 62.957-145.332 71.484-170.835 25.21 32.648 77.71 33.586 83.832 33.586 75.184 0 160.437-74.657 158.02-178.563C386.94 75.754 320.252 0 200.43 0v.117C86.453.117 19.93 60.953 3.645 137.82c-14.915 71.274 18.253 125.52 57.3 140.399zm0 0"/></symbol><symbol id="play" viewBox="0 0 30.051 30.051"><title>play</title><path d="M19.982 14.438l-6.24-4.536a.752.752 0 00-1.195.607v9.069a.75.75 0 001.195.606l6.24-4.532a.747.747 0 000-1.214z"/><path d="M15.026.002C6.726.002 0 6.728 0 15.028c0 8.297 6.726 15.021 15.026 15.021 8.298 0 15.025-6.725 15.025-15.021.001-8.3-6.727-15.026-15.025-15.026zm0 27.54c-6.912 0-12.516-5.601-12.516-12.514 0-6.91 5.604-12.518 12.516-12.518 6.911 0 12.514 5.607 12.514 12.518.001 6.913-5.603 12.514-12.514 12.514z"/></symbol><symbol id="post" viewBox="1 -17 511.999 511"><title>post</title><path d="M504.035 4.523a20.006 20.006 0 00-17.555-3.246c-23.168 6.653-52.695 4.774-90.078 2.399C372.996 2.187 346.47.5 316 .5c-23.875 0-45.328 10.527-60 27.168C241.328 11.028 219.879.5 196 .5c-30.465 0-56.996 1.688-80.402 3.176-37.383 2.379-66.91 4.258-90.078-2.399A19.999 19.999 0 000 20.5v331.797c-.055 21.406 8.242 41.543 23.36 56.7S58.593 432.5 80 432.5h145c11.047 0 20-8.953 20-20s-8.953-20-20-20H80c-10.703 0-20.762-4.172-28.32-11.75-7.559-7.578-11.707-17.648-11.68-28.402v-10.61c11.777 6.828 25.434 10.762 40 10.762h149c4.445 0 7.488 2.762 8.855 5.344 3.59 6.777 10.52 10.644 17.692 10.644 3.156 0 6.36-.746 9.34-2.328 6.023-3.187 9.738-9.015 10.492-15.3.39-1.56.621-3.18.621-4.86V80.5c0-22.055 17.941-40 40-40 29.195 0 55.05 1.645 77.863 3.094 29.832 1.898 55.133 3.508 78.137 1.011V188.5c0 11.047 8.953 20 20 20s20-8.953 20-20v-168a20.01 20.01 0 00-7.965-15.977zM80 312.5c-22.055 0-40-17.945-40-40V44.605c23.004 2.497 48.3.887 78.133-1.011C140.949 42.144 166.805 40.5 196 40.5c22.055 0 40 17.945 40 40v232.492a50.05 50.05 0 00-7-.492zm122-199c0 11.047-8.953 20-20 20H95c-11.047 0-20-8.953-20-20s8.953-20 20-20h87c11.047 0 20 8.953 20 20zm-30 80c0 11.047-8.953 20-20 20H95c-11.047 0-20-8.953-20-20s8.953-20 20-20h57c11.047 0 20 8.953 20 20zm237.59 61.559l-109.8 109.558a20.012 20.012 0 00-5.013 8.348l-23.914 78.722a20.015 20.015 0 004.82 19.782 20.01 20.01 0 0014.32 6.035c1.778 0 3.575-.238 5.337-.73l80.726-22.36a20.015 20.015 0 008.79-5.121L494.43 339.93c23.39-23.395 23.39-61.461 0-84.856-23.395-23.394-61.461-23.394-84.84-.015zm-49.274 162.207l-40.609 11.25 11.883-39.125 74.09-73.926 28.289 28.289zm105.84-105.637l-3.875 3.867-28.285-28.285 3.863-3.852c7.797-7.8 20.485-7.8 28.282 0 7.8 7.797 7.8 20.485.015 28.27zm0 0"/></symbol><symbol id="reddit" viewBox="-21 -56 682.667 682"><title>reddit</title><path d="M429.93 388.258c-27.567 0-50.043-22.473-50.043-50.043 0-27.567 22.476-50.043 50.043-50.043 27.57 0 50.047 22.476 50.047 50.043 0 27.57-22.477 50.043-50.047 50.043m8.84 82.129c-34.196 34.097-99.61 36.789-118.817 36.789-19.21 0-84.719-2.692-118.82-36.79a12.939 12.939 0 010-18.347 12.937 12.937 0 0118.351 0c21.512 21.52 67.524 29.203 100.47 29.203 32.85 0 78.952-7.683 100.472-29.203a12.927 12.927 0 0118.344 0c4.996 5.094 4.996 13.258 0 18.348M159.734 338.219c0-27.567 22.477-50.043 50.047-50.043 27.567 0 50.043 22.476 50.043 50.043s-22.476 50.047-50.043 50.047c-27.57-.008-50.047-22.48-50.047-50.047M640 288.176c0-38.711-31.313-70.024-70.023-70.024-18.922 0-36.024 7.489-48.602 19.692-47.836-34.578-113.82-56.864-187.305-59.457l31.89-150.133 104.22 22.191c1.25 26.512 22.953 47.645 49.757 47.645 27.66 0 50.043-22.383 50.043-50.047C569.98 20.383 547.598-2 519.937-2c-19.695 0-36.503 11.43-44.667 27.95L358.852 1.167c-3.266-.672-6.625-.09-9.414 1.73-2.782 1.825-4.708 4.61-5.375 7.875 0 0-34.965 166.559-34.965 167.52-74.825 1.918-142.063 24.3-190.664 59.36-12.582-12.102-29.586-19.5-48.41-19.5C31.312 218.152 0 249.558 0 288.175c0 28.43 17 52.926 41.398 63.87a140.986 140.986 0 00-1.632 21.231c0 107.77 125.445 195.086 280.187 195.086 154.738 0 280.184-87.316 280.184-195.086 0-7.109-.574-14.12-1.63-21.035C622.81 341.293 640 316.801 640 288.176"/></symbol><symbol id="search" viewBox="0 0 446.25 446.25"><title>search</title><path d="M318.75 280.5h-20.4l-7.649-7.65c25.5-28.05 40.8-66.3 40.8-107.1C331.5 73.95 257.55 0 165.75 0S0 73.95 0 165.75 73.95 331.5 165.75 331.5c40.8 0 79.05-15.3 107.1-40.8l7.65 7.649v20.4L408 446.25 446.25 408l-127.5-127.5zm-153 0C102 280.5 51 229.5 51 165.75S102 51 165.75 51 280.5 102 280.5 165.75s-51 114.75-114.75 114.75z"/></symbol><symbol id="settings" viewBox="0 0 512 512"><title>Фильтры</title><path d="M498.723 89.435H183.171V76.958c0-18.3-14.888-33.188-33.188-33.188h-51.5c-18.3 0-33.188 14.888-33.188 33.188v12.477h-52.02C5.943 89.435 0 95.38 0 102.711c0 7.331 5.943 13.275 13.275 13.275h52.018v12.473c0 18.3 14.888 33.188 33.188 33.188h51.501c18.3 0 33.188-14.888 33.188-33.188v-12.473h315.553c7.332 0 13.275-5.945 13.275-13.275.001-7.331-5.943-13.276-13.275-13.276zm-342.102 39.024a6.646 6.646 0 01-6.638 6.638H98.482a6.646 6.646 0 01-6.638-6.638V76.958a6.646 6.646 0 016.638-6.638h51.501a6.646 6.646 0 016.638 6.638v51.501zM498.725 237.295h-52.019v-12.481c0-18.3-14.888-33.188-33.188-33.188h-51.501c-18.3 0-33.188 14.888-33.188 33.188v12.481H13.275C5.943 237.295 0 243.239 0 250.57s5.943 13.275 13.275 13.275h315.553v12.469c0 18.3 14.888 33.188 33.188 33.188h51.501c18.3 0 33.188-14.888 33.188-33.188v-12.469h52.019c7.332 0 13.275-5.945 13.275-13.275.001-7.331-5.942-13.275-13.274-13.275zm-78.57 39.02a6.646 6.646 0 01-6.638 6.638h-51.501a6.646 6.646 0 01-6.638-6.638v-51.501a6.646 6.646 0 016.638-6.638h51.501a6.646 6.646 0 016.638 6.638v51.501zM498.725 396.014H276.432v-12.473c0-18.3-14.888-33.188-33.188-33.188h-51.501c-18.3 0-33.188 14.888-33.188 33.188v12.473H13.275C5.943 396.014 0 401.959 0 409.289c0 7.331 5.943 13.275 13.275 13.275h145.279v12.477c0 18.3 14.888 33.188 33.188 33.188h51.501c18.3 0 33.188-14.888 33.188-33.188v-12.477h222.293c7.332 0 13.275-5.945 13.275-13.275.001-7.332-5.942-13.275-13.274-13.275zm-248.844 39.028a6.646 6.646 0 01-6.638 6.638h-51.501a6.646 6.646 0 01-6.638-6.638v-51.501a6.646 6.646 0 016.638-6.638h51.501a6.646 6.646 0 016.638 6.638v51.501z"/></symbol><symbol id="share" viewBox="0 1 511 512"><title>share</title><path d="M512.453 260.023v171.985c0 44.105-35.883 79.992-79.992 79.992H80.492C36.387 512 .5 476.113.5 432.008V80.039C.5 35.93 36.387.043 80.492.043h228.98c11.048 0 20 8.957 20 20 0 11.047-8.952 20-20 20H80.493c-22.054 0-39.996 17.941-39.996 39.996v351.969c0 22.055 17.942 39.996 39.996 39.996h351.969c22.055 0 39.996-17.941 39.996-39.996V260.023c0-11.046 8.953-20 20-20 11.043 0 19.996 8.954 19.996 20zM466.566 113.88c3.801 3.777 5.895 8.789 5.895 14.11 0 5.323-2.094 10.331-5.895 14.109l-80.199 79.695c-7.832 7.785-7.87 20.45-.086 28.281a19.93 19.93 0 0014.184 5.903 19.946 19.946 0 0014.098-5.813l80.199-79.695c11.41-11.344 17.695-26.426 17.695-42.48 0-16.055-6.285-31.141-17.695-42.481l-80.2-79.695c-7.832-7.786-20.496-7.747-28.28.09-7.786 7.835-7.747 20.495.085 28.28zm-43.105 13.156c0-11.047-8.953-20-19.996-20-72.113 0-139.91 28.082-190.902 79.074s-79.075 118.79-79.075 190.903v15c0 11.043 8.953 19.996 20 19.996 11.043 0 19.996-8.953 19.996-19.996v-15c0-126.813 103.168-229.98 229.98-229.98 11.044 0 19.997-8.954 19.997-19.997zm0 0"/></symbol><symbol id="trash" viewBox="0 0 459 459"><title>trash</title><path d="M76.5 408c0 28.05 22.95 51 51 51h204c28.05 0 51-22.95 51-51V102h-306v306zM408 25.5h-89.25L293.25 0h-127.5l-25.5 25.5H51v51h357v-51z"/></symbol><symbol id="twitter" viewBox="0 -47 512.002 512"><title>Twitter</title><path d="M191.012 419.043c-22.14 0-44.93-1.793-67.856-5.387-40.379-6.336-81.254-27.457-92.82-33.781L0 363.289l32.844-10.8c35.902-11.805 57.742-19.13 84.777-30.598-27.07-13.11-47.933-36.692-57.976-67.176l-7.641-23.195 6.266.957A113.939 113.939 0 0144 214.883c-12.934-19.645-19.781-43.649-18.324-64.219l1.437-20.246 12.121 4.695a113.316 113.316 0 01-10.98-30.777c-5.293-26.36-.863-54.363 12.476-78.852L51.29 6.102l14.12 16.96c44.66 53.649 101.227 85.473 168.363 94.79-2.742-18.903-.687-37.145 6.114-53.497 7.918-19.039 22.004-35.183 40.722-46.69 20.79-12.778 46-18.97 70.989-17.435 26.511 1.63 50.582 11.563 69.699 28.747 9.336-2.426 16.215-5.016 25.512-8.516 5.593-2.106 11.937-4.496 19.875-7.23l29.25-10.079-19.075 54.477a96.355 96.355 0 013.91-.254l31.235-1.414-18.461 25.23c-1.059 1.446-1.328 1.856-1.703 2.422-1.488 2.242-3.34 5.032-28.68 38.867-6.344 8.473-9.512 19.508-8.922 31.079 2.246 43.968-3.148 83.75-16.043 118.234-12.195 32.625-31.093 60.617-56.164 83.2-31.023 27.937-70.582 47.066-117.582 56.847-23.054 4.797-47.812 7.203-73.437 7.203zm0 0"/></symbol><symbol id="user" viewBox="0 0 341.333 341.333"><title>user</title><path d="M170.667 170.667c47.147 0 85.333-38.293 85.333-85.333C256 38.187 217.813 0 170.667 0S85.333 38.187 85.333 85.333c0 47.04 38.187 85.334 85.334 85.334zm0-130.134c24.747 0 44.8 20.053 44.8 44.8 0 24.747-20.053 44.8-44.8 44.8s-44.8-20.053-44.8-44.8c0-24.746 20.053-44.8 44.8-44.8zm0 151.467C113.813 192 0 220.48 0 277.333v64h341.333v-64C341.333 220.48 227.52 192 170.667 192zM300.8 300.8H40.533v-23.467c0-13.76 66.667-44.8 130.133-44.8s130.133 31.04 130.133 44.8V300.8z"/></symbol><symbol id="video" viewBox="0 0 351.465 351.465"><title>video</title><path d="M249.427 68.025H22.675C10.158 68.025 0 78.184 0 90.701v170.064c0 12.517 10.158 22.675 22.675 22.675h226.751c12.517 0 22.675-10.158 22.675-22.675V90.701c.001-12.517-10.158-22.676-22.674-22.676zm0 170.064c0 12.517-10.158 22.675-22.675 22.675H45.35c-12.517 0-22.675-10.158-22.675-22.675V113.376c0-12.517 10.158-22.675 22.675-22.675h181.401c12.517 0 22.675 10.158 22.675 22.675v124.713zm93.739-135.552a11.369 11.369 0 00-12.789 4.558l-35.6 40.294v68.025l35.6 40.294c2.154 3.22 5.759 5.057 9.501 5.057a11.79 11.79 0 003.288-.476c4.807-1.451 8.299-5.873 8.299-10.861V113.376c0-4.989-3.492-9.388-8.299-10.839zm-229.79 124.214l56.688-45.35-56.688-45.35v90.7z"/></symbol><symbol id="vk" viewBox="0 0 304.36 304.36"><title>ВКонтакте</title><path d="M261.945 175.576c10.096 9.857 20.752 19.131 29.807 29.982 4 4.822 7.787 9.798 10.684 15.394 4.105 7.955.387 16.709-6.746 17.184l-44.34-.02c-11.436.949-20.559-3.655-28.23-11.474-6.139-6.253-11.824-12.908-17.727-19.372-2.42-2.642-4.953-5.128-7.979-7.093-6.053-3.929-11.307-2.726-14.766 3.587-3.523 6.421-4.322 13.531-4.668 20.687-.475 10.441-3.631 13.186-14.119 13.664-22.414 1.057-43.686-2.334-63.447-13.641-17.422-9.968-30.932-24.04-42.691-39.971-22.895-31.021-40.428-65.108-56.186-100.15C-2.01 76.458.584 72.22 9.295 72.07c14.465-.281 28.928-.261 43.41-.02 5.879.086 9.771 3.458 12.041 9.012 7.826 19.243 17.402 37.551 29.422 54.521 3.201 4.518 6.465 9.036 11.113 12.216 5.142 3.521 9.057 2.354 11.476-3.374 1.535-3.632 2.207-7.544 2.553-11.434 1.146-13.383 1.297-26.743-.713-40.079-1.234-8.323-5.922-13.711-14.227-15.286-4.238-.803-3.607-2.38-1.555-4.799 3.564-4.172 6.916-6.769 13.598-6.769h50.111c7.889 1.557 9.641 5.101 10.721 13.039l.043 55.663c-.086 3.073 1.535 12.192 7.07 14.226 4.43 1.448 7.35-2.096 10.008-4.905 11.998-12.734 20.561-27.783 28.211-43.366 3.395-6.852 6.314-13.968 9.143-21.078 2.096-5.276 5.385-7.872 11.328-7.757l48.229.043c1.43 0 2.877.021 4.262.258 8.127 1.385 10.354 4.881 7.844 12.817-3.955 12.451-11.65 22.827-19.174 33.251-8.043 11.129-16.645 21.877-24.621 33.072-7.328 10.223-6.746 15.376 2.357 24.255zm0 0" fill-rule="evenodd" clip-rule="evenodd"/></symbol><symbol id="whatsapp" viewBox="0 0 90 90"><title>whatsapp</title><path d="M90 43.841c0 24.213-19.779 43.841-44.182 43.841a44.256 44.256 0 01-21.357-5.455L0 90l7.975-23.522a43.38 43.38 0 01-6.34-22.637C1.635 19.628 21.416 0 45.818 0 70.223 0 90 19.628 90 43.841zM45.818 6.982c-20.484 0-37.146 16.535-37.146 36.859 0 8.065 2.629 15.534 7.076 21.61L11.107 79.14l14.275-4.537A37.122 37.122 0 0045.819 80.7c20.481 0 37.146-16.533 37.146-36.857S66.301 6.982 45.818 6.982zm22.311 46.956c-.273-.447-.994-.717-2.076-1.254-1.084-.537-6.41-3.138-7.4-3.495-.993-.358-1.717-.538-2.438.537-.721 1.076-2.797 3.495-3.43 4.212-.632.719-1.263.809-2.347.271-1.082-.537-4.571-1.673-8.708-5.333-3.219-2.848-5.393-6.364-6.025-7.441-.631-1.075-.066-1.656.475-2.191.488-.482 1.084-1.255 1.625-1.882.543-.628.723-1.075 1.082-1.793.363-.717.182-1.344-.09-1.883-.27-.537-2.438-5.825-3.34-7.977-.902-2.15-1.803-1.792-2.436-1.792-.631 0-1.354-.09-2.076-.09s-1.896.269-2.889 1.344c-.992 1.076-3.789 3.676-3.789 8.963 0 5.288 3.879 10.397 4.422 11.113.541.716 7.49 11.92 18.5 16.223C58.2 65.771 58.2 64.336 60.186 64.156c1.984-.179 6.406-2.599 7.312-5.107.9-2.512.9-4.663.631-5.111z"/></symbol></svg>