<svg id="logo" xmlns="http://www.w3.org/2000/svg" viewBox="0 0 210 210"><defs><style>.cls-1,.cls-2{fill:#2ebbab;}.cls-1{fill-rule:evenodd;}</style></defs><title>logo</title><path id="nos" class="cls-1" d="M115,109.48a19.8,19.8,0,0,0-.2-2.69,20.39,20.39,0,0,0-19.51-.59,19.71,19.71,0,0,0-.29,3.28A20.39,20.39,0,0,0,105,127,20.39,20.39,0,0,0,115,109.48Z"/><g id="oko-left"><path id="oko-left-2" class="cls-2" d="M72.86,65.47A5.76,5.76,0,0,1,74,68.92a6,6,0,1,1-7.5-5.75,36.56,36.56,0,0,0-6-1,26.25,26.25,0,0,0,3.95,20.65l.94,0A39,39,0,0,1,93,94h0A35.1,35.1,0,0,0,72.86,65.47Z"/><path id="oko-left-1" class="cls-2" d="M74,68.92a6,6,0,1,1-7.48-5.76A36.77,36.77,0,0,0,57.37,62,36.17,36.17,0,0,0,43,65a21.26,21.26,0,0,0,39.43,7.1,35.64,35.64,0,0,0-9.58-6.6A5.8,5.8,0,0,1,74,68.92Z"/></g><g id="oko-right"><g id="oko-right-2" data-name="oko-right"><path id="oko-right-2-2" data-name="oko-right-2" class="cls-2" d="M150.46,62.14a36.56,36.56,0,0,0-6,1,5.94,5.94,0,1,1-7.5,5.75,5.76,5.76,0,0,1,1.14-3.45A35.1,35.1,0,0,0,118,94h0a39,39,0,0,1,27.52-11.24l.94,0a26.25,26.25,0,0,0,4-20.65Z"/></g><path id="oko-right-1" class="cls-2" d="M144.48,63.16A5.95,5.95,0,1,1,137,68.92a5.8,5.8,0,0,1,1.15-3.46,35.64,35.64,0,0,0-9.58,6.6A21.26,21.26,0,0,0,168,65a36.17,36.17,0,0,0-14.37-3A36.77,36.77,0,0,0,144.48,63.16Z"/></g><g id="r"><path class="cls-2" d="M168.82,17A48.15,48.15,0,0,1,146.5,32.92a54,54,0,0,0-2.08,6.72,35.55,35.55,0,0,1,24.32,58.21l.18.11a65,65,0,0,0-.1-81Z"/><path class="cls-2" d="M179.14,35.41A56.5,56.5,0,0,0,121,45.72a2.81,2.81,0,0,0,0,.29,35.54,35.54,0,0,1,44.86,54.9l.51.09a65.19,65.19,0,0,0,12.77-65.59Z"/></g><g id="l"><path class="cls-2" d="M34,75.07A35.55,35.55,0,0,1,66.58,39.64a54,54,0,0,0-2.08-6.72A48.15,48.15,0,0,1,42.18,17a65,65,0,0,0-.1,81l.18-.11A35.43,35.43,0,0,1,34,75.07Z"/><path class="cls-2" d="M34,75.07A35.52,35.52,0,0,1,90,46a2.81,2.81,0,0,0,0-.29A56.5,56.5,0,0,0,31.86,35.41,65.19,65.19,0,0,0,44.63,101l.51-.09A35.48,35.48,0,0,1,34,75.07Z"/></g><path id="body" class="cls-1" d="M105.36,9A94.92,94.92,0,0,0,67,17a96.11,96.11,0,0,1,44,39.2,35.47,35.47,0,1,1,13.23,50.67A96,96,0,0,1,67,193a94.92,94.92,0,0,0,38.36,8c52.82,0,95.64-43,95.64-96S158.18,9,105.36,9Z"/></svg>